<svg width="28" height="44" viewBox="0 0 28 44" fill="none" xmlns="http://www.w3.org/2000/svg">
<path d="M28 17.9025C27.9192 18.2722 27.8461 18.6457 27.7576 19.0153C27.5421 19.8882 27.0418 20.5999 26.5223 21.3037C26.4261 21.4374 26.353 21.6262 26.353 21.7874C26.3414 23.7141 26.3453 25.6447 26.3453 27.5714C26.3453 27.6697 26.3453 27.7719 26.3453 27.9135C26.2722 27.8427 26.2221 27.8034 26.1798 27.7562C25.7334 27.249 25.2947 26.7339 24.8445 26.2306C24.2133 25.5189 23.5707 24.8151 22.9396 24.1034C22.8395 23.9893 22.7587 23.9736 22.624 24.0247C21.4157 24.4612 20.1727 24.6932 18.8873 24.6735C17.4404 24.6538 16.055 24.355 14.7158 23.7809C13.7961 23.3838 12.9841 22.8333 12.226 22.1727C10.9676 21.0796 10.2711 19.6916 10.0209 18.0126C9.62456 17.9694 9.21665 17.9497 8.81643 17.8711C8.18916 17.7492 7.56574 17.5998 6.95002 17.4346C6.773 17.3874 6.67294 17.4307 6.5575 17.5526C6.06492 18.0638 5.56849 18.5749 5.06822 19.0782C4.50252 19.6405 3.92913 20.1949 3.31726 20.7926V20.4662C3.31726 18.9288 3.30956 17.3914 3.32495 15.854C3.32495 15.5866 3.24029 15.4254 3.05172 15.2563C1.80104 14.1592 0.835123 12.8577 0.381028 11.2102C-0.353991 8.56397 0.142435 6.14577 1.80489 4.01067C2.50527 3.11024 3.36343 2.33956 4.34859 1.75369C5.96871 0.79427 7.71582 0.196602 9.59763 0.0511164C9.67459 0.0432523 9.75156 0.0196602 9.83237 0C10.4019 0 10.9715 0 11.541 0C11.6257 0.0196602 11.7142 0.0471844 11.7988 0.0511164C13.2573 0.176941 14.6389 0.570145 15.9704 1.18747C17.4673 1.88344 18.7257 2.89398 19.7224 4.20727C20.9808 5.86266 21.4888 7.7697 21.2617 9.86154C21.2386 10.0778 21.2733 10.1761 21.5119 10.2272C22.4662 10.4277 23.3513 10.8131 24.2095 11.2889C25.4987 11.9966 26.4761 13.0347 27.2188 14.2929C27.5113 14.7884 27.646 15.3821 27.8346 15.9365C27.9115 16.1646 27.9385 16.4084 27.9885 16.6443V17.8986L28 17.9025ZM4.96816 16.8488C5.40686 16.4005 5.79554 16.0073 6.18037 15.6062C6.28042 15.5001 6.36508 15.4647 6.50362 15.5237C6.73067 15.622 6.96926 15.6967 7.204 15.7792C9.75925 16.6561 12.2876 16.5499 14.7928 15.563C15.6548 15.2248 16.4283 14.7176 17.1441 14.1357C18.4486 13.0779 19.2491 11.6742 19.6147 10.0227C19.834 9.03581 19.6916 8.07246 19.3684 7.11698C18.8027 5.44586 17.7483 4.20334 16.309 3.25965C14.8544 2.3081 13.2573 1.82053 11.5487 1.67505C9.78619 1.52563 8.08141 1.78514 6.46899 2.50864C5.74551 2.835 5.04513 3.25572 4.40247 3.7315C3.10945 4.69091 2.27822 6.01994 1.84337 7.57309C1.52396 8.70552 1.59708 9.85367 2.03963 10.9782C2.58224 12.3662 3.37883 13.5341 4.59488 14.3755C4.86811 14.5642 5.00664 14.7648 4.98355 15.1265C4.94507 15.6691 4.97201 16.2157 4.97201 16.8409L4.96816 16.8488ZM24.6674 23.604C24.6905 23.5883 24.7175 23.5725 24.7406 23.5529C24.7406 22.8608 24.7675 22.1688 24.7329 21.4807C24.7098 21.0482 24.8406 20.7415 25.1215 20.419C25.9605 19.4518 26.4261 18.3154 26.326 17.0021C26.2144 15.563 25.5641 14.4148 24.475 13.4908C23.4706 12.6415 22.3392 12.1067 21.0809 11.8079C20.9 11.7646 20.8153 11.8 20.7384 11.9809C20.419 12.7634 20.011 13.4829 19.4492 14.1199C18.6834 14.9928 17.8483 15.7596 16.8478 16.3494C15.5509 17.1122 14.1732 17.6037 12.707 17.8475C12.3607 17.9065 12.0143 17.9458 11.5795 18.0048C11.768 18.4648 11.9181 18.8934 12.1144 19.2984C12.6762 20.4702 13.5613 21.3195 14.6812 21.9407C15.9781 22.6603 17.3596 22.9945 18.8181 23.0299C20.2843 23.0653 21.6735 22.7193 22.9934 22.0784C23.1666 21.9958 23.2744 21.9919 23.3975 22.157C23.5514 22.3654 23.7362 22.5541 23.9093 22.7507C24.1633 23.0378 24.4173 23.3209 24.6713 23.6079L24.6674 23.604Z" fill="white"/>
<path d="M6.55746 9.81045H4.99121V8.20618H6.55746V9.81045Z" fill="white"/>
<path d="M9.89783 9.80651V8.20618H11.4641V9.80651H9.89783Z" fill="white"/>
<path d="M16.3897 8.20618V9.80651H14.8234V8.20618H16.3897Z" fill="white"/>
<path d="M6.222 33.609H7.322V33.873C7.322 35.985 6.706 38.108 5.078 39.043L4.253 37.943C5.705 37.096 6.222 35.435 6.222 33.873V33.609ZM6.508 33.609H7.608V33.873C7.608 35.402 8.136 36.953 9.577 37.723L8.785 38.801C7.135 37.943 6.508 35.952 6.508 33.873V33.609ZM4.594 32.509H9.225V33.686H4.594V32.509ZM6.222 31.134H7.608V33.455H6.222V31.134ZM11.876 30.793H13.262V40.979H11.876V30.793ZM10.655 34.698H12.349V35.886H10.655V34.698ZM9.687 30.947H11.051V40.517H9.687V30.947ZM15.1201 35.358H15.9891C18.0901 35.358 19.3111 35.336 20.7081 35.116L20.8511 36.249C19.4211 36.491 18.1341 36.513 15.9891 36.513H15.1201V35.358ZM15.1201 31.497H20.0151V32.652H16.5721V35.831H15.1201V31.497ZM16.1211 33.433H19.7181V34.555H16.1211V33.433ZM21.5551 30.804H23.0291V36.953H21.5551V30.804ZM19.5861 37.107C21.7311 37.107 23.0731 37.822 23.0731 39.043C23.0731 40.275 21.7311 40.979 19.5861 40.979C17.4301 40.979 16.0991 40.275 16.0991 39.043C16.0991 37.822 17.4301 37.107 19.5861 37.107ZM19.5861 38.229C18.2551 38.229 17.5621 38.493 17.5621 39.043C17.5621 39.604 18.2551 39.868 19.5861 39.868C20.9061 39.868 21.6101 39.604 21.6101 39.043C21.6101 38.493 20.9061 38.229 19.5861 38.229Z" fill="white"/>
</svg>
