<svg width="30" height="16" viewBox="0 0 30 16" fill="none" xmlns="http://www.w3.org/2000/svg">
<path d="M0.264205 15V0.454545H6.00284C7.10606 0.454545 8.04593 0.665246 8.82244 1.08665C9.59896 1.50331 10.1908 2.08333 10.598 2.8267C11.0099 3.56534 11.2159 4.41761 11.2159 5.38352C11.2159 6.34943 11.0076 7.2017 10.5909 7.94034C10.1742 8.67898 9.57055 9.25426 8.77983 9.66619C7.99384 10.0781 7.04214 10.2841 5.92472 10.2841H2.26705V7.8196H5.42756C6.01941 7.8196 6.5071 7.7178 6.89062 7.5142C7.27888 7.30587 7.56771 7.01941 7.7571 6.65483C7.95123 6.28551 8.0483 5.86174 8.0483 5.38352C8.0483 4.90057 7.95123 4.47917 7.7571 4.11932C7.56771 3.75473 7.27888 3.47301 6.89062 3.27415C6.50237 3.07055 6.00994 2.96875 5.41335 2.96875H3.33949V15H0.264205ZM14.2415 15.1847C13.7727 15.1847 13.3703 15.0189 13.0341 14.6875C12.7027 14.3513 12.5369 13.9489 12.5369 13.4801C12.5369 13.0161 12.7027 12.6184 13.0341 12.2869C13.3703 11.9555 13.7727 11.7898 14.2415 11.7898C14.696 11.7898 15.0938 11.9555 15.4347 12.2869C15.7756 12.6184 15.946 13.0161 15.946 13.4801C15.946 13.7926 15.8655 14.0791 15.7045 14.3395C15.5483 14.5952 15.3423 14.8011 15.0866 14.9574C14.831 15.1089 14.5492 15.1847 14.2415 15.1847ZM17.2493 2.99006V0.454545H29.1953V2.99006H24.7422V15H21.7024V2.99006H17.2493Z" fill="#B9B9FF"/>
</svg>
