<svg width="40" height="41" viewBox="0 0 40 41" fill="none" xmlns="http://www.w3.org/2000/svg">
<g clip-path="url(#clip0_2121_1379)">
<path d="M28.3328 16.0059C26.8669 16.9118 25.9614 18.4647 25.9614 20.1902C25.9614 22.1314 27.1256 23.9 28.8933 24.6333C28.5484 25.7549 28.031 26.7902 27.3843 27.7392C26.4357 29.0765 25.444 30.4569 23.9781 30.4569C22.5121 30.4569 22.0809 29.5941 20.3563 29.5941C18.6747 29.5941 18.0711 30.5 16.6914 30.5C15.3116 30.5 14.3631 29.249 13.2852 27.6961C11.8623 25.5392 11.0431 23.0373 11 20.4059C11 16.1353 13.7595 13.849 16.5189 13.849C17.9849 13.849 19.1921 14.798 20.0976 14.798C20.9599 14.798 22.3396 13.8059 23.9781 13.8059C25.7027 13.7627 27.3411 14.5824 28.3328 16.0059ZM23.202 11.9941C23.9349 11.1314 24.323 10.0529 24.3661 8.93137C24.3661 8.80196 24.3661 8.62941 24.323 8.5C23.0726 8.62941 21.9085 9.23333 21.0893 10.1824C20.3563 11.002 19.9251 12.0373 19.882 13.1588C19.882 13.2882 19.882 13.4176 19.9251 13.5471C20.0113 13.5471 20.1407 13.5902 20.2269 13.5902C21.3911 13.5039 22.469 12.9 23.202 11.9941Z" fill="white"/>
</g>
<defs>
<clipPath id="clip0_2121_1379">
<rect width="17.8933" height="22" fill="white" transform="translate(11 8.5)"/>
</clipPath>
</defs>
</svg>
