<svg width="34" height="34" viewBox="0 0 34 34" fill="none" xmlns="http://www.w3.org/2000/svg">
<path fill-rule="evenodd" clip-rule="evenodd" d="M17.7134 9.00694C18.7869 7.93178 20.5275 7.93046 21.601 9.004L24.0939 11.4969C25.1583 12.5613 25.1687 14.285 24.1173 15.3638L14.8855 24.8357C14.1793 25.5602 13.2109 25.9688 12.2 25.9688L9.44734 25.9686C8.16877 25.9686 7.14821 24.9033 7.20198 23.6248L7.32016 20.8154C7.35968 19.8758 7.75034 18.9851 8.41477 18.3197L17.7134 9.00694ZM20.5407 10.0659C20.0528 9.57789 19.2616 9.57849 18.7737 10.0672L17.1113 11.7321L21.3915 16.0123L23.0443 14.3165C23.5222 13.8261 23.5175 13.0426 23.0337 12.5588L20.5407 10.0659ZM9.47503 19.3799L16.051 12.7939L20.344 17.0869L13.8125 23.7884C13.3888 24.2231 12.8077 24.4682 12.2012 24.4682L9.44854 24.4681C9.02235 24.4681 8.68216 24.113 8.70009 23.6868L8.81826 20.8773C8.84197 20.3136 9.07637 19.7792 9.47503 19.3799ZM24.7148 25.8955C25.1289 25.8955 25.4645 25.5595 25.4645 25.1452C25.4645 24.7308 25.1289 24.3949 24.7148 24.3949H18.5931C18.1791 24.3949 17.8434 24.7308 17.8434 25.1452C17.8434 25.5595 18.1791 25.8955 18.5931 25.8955H24.7148Z" fill="#4C3E35"/>
</svg>
