<svg width="40" height="41" viewBox="0 0 40 41" fill="none" xmlns="http://www.w3.org/2000/svg">
<path d="M29.68 21.0914C29.68 20.3533 29.6158 19.6436 29.4967 18.9623H20V22.9886H25.4267C25.1929 24.2897 24.4825 25.392 23.4146 26.1301V28.7417H26.6733C28.58 26.9297 29.68 24.2613 29.68 21.0914Z" fill="#4285F4"/>
<path d="M20.0001 31.2634C22.7226 31.2634 25.0051 30.3314 26.6734 28.7417L23.4147 26.1301C22.5118 26.7546 21.3568 27.1236 20.0001 27.1236C17.3738 27.1236 15.1509 25.2927 14.358 22.8325H10.9893V25.5292C12.6484 28.931 16.0584 31.2634 20.0001 31.2634Z" fill="#34A853"/>
<path d="M14.3578 22.8325C14.1561 22.2079 14.0415 21.5408 14.0415 20.8548C14.0415 20.1688 14.1561 19.5017 14.3578 18.8772V16.1804H10.989C10.2832 17.6309 9.91588 19.2317 9.9165 20.8548C9.9165 22.5344 10.3061 24.1241 10.989 25.5292L14.3578 22.8325Z" fill="#FBBC05"/>
<path d="M20.0001 14.586C21.4805 14.586 22.8097 15.1112 23.8547 16.1426L26.7468 13.1572C25.0005 11.4776 22.718 10.4462 20.0001 10.4462C16.0584 10.4462 12.6484 12.7787 10.9893 16.1804L14.358 18.8772C15.1509 16.417 17.3738 14.586 20.0001 14.586Z" fill="#EA4335"/>
</svg>
